# xmcd
# 
# Track frame offsets:
#     150
#     14695
#     35435
#     52650
#     74097
#     92192
#     113520
#     132880
#     150172
#     166527
#     194967
# 
# Disc length: 2607
# 
# Revision: 5
# Processed by: cddbd v1.5.1PL2 Copyright (c) Steve Scherf et al.
# Submitted via: BonkEnc v1.0beta4
# 
DISCID=8a0a2d0b
DTITLE=孫燕姿 - 風箏
DYEAR=2001
DGENRE=Pop
TTITLE0=綠光
TTITLE1=風箏
TTITLE2=任性
TTITLE3=逃亡
TTITLE4=不是真的愛我
TTITLE5=真的
TTITLE6=練習
TTITLE7=愛情字典
TTITLE8=隨堂測驗
TTITLE9=我是我
TTITLE10=¸ê®Æ­y 11   
EXTD=YEAR: 2001 ID3G:  13
EXTT0=
EXTT1=
EXTT2=
EXTT3=
EXTT4=
EXTT5=
EXTT6=
EXTT7=
EXTT8=
EXTT9=
EXTT10=
PLAYORDER=
